<svg xmlns="http://www.w3.org/2000/svg" viewBox="0 0 100 100"><defs><style>.cls-1{fill:#fff;}.cls-2{fill:none;}</style></defs><title>like</title><g id="NotLiked"><path id="Like" class="cls-1" d="M83,35.86A18.83,18.83,0,0,0,50,23.43,18.82,18.82,0,0,0,20.81,47.17h0L46.23,81.11a1.81,1.81,0,0,0,.18.21,1.34,1.34,0,0,0,.11.14,5.4,5.4,0,0,0,.61.56l0,0,.08,0c.16.11.33.22.51.32l.11.06a4.26,4.26,0,0,0,.62.26l.17,0,.48.11.21,0A4.46,4.46,0,0,0,50,83h0a4.46,4.46,0,0,0,.63,0l.21,0,.48-.11.17,0a4.26,4.26,0,0,0,.62-.26.41.41,0,0,0,.11-.07,4.33,4.33,0,0,0,.51-.31l.08,0,0,0a5.4,5.4,0,0,0,.61-.56,1.34,1.34,0,0,0,.11-.14,1.81,1.81,0,0,0,.18-.21L79.23,47.17h0A18.72,18.72,0,0,0,83,35.86ZM71.69,41.51,61.9,54.57,50,70.43,38.1,54.57,28.31,41.51a9.31,9.31,0,0,1-1.88-5.65,9.42,9.42,0,0,1,15.14-7.49l.06.06-.05-.05,0,0v0l1.9,2,3.14,3.13a4.71,4.71,0,0,0,6.66,0l3.14-3.13,1.9-2v0l0,0-.05.05.06-.06A9.42,9.42,0,0,1,71.69,41.51Z"/></g><g id="Rectangle"><rect class="cls-2" width="100" height="100"/></g></svg>