<svg xmlns="http://www.w3.org/2000/svg" viewBox="0 0 100 100"><defs><style>.cls-1{fill:#fff;}.cls-2{fill:none;}</style></defs><title>liked</title><g id="Liked"><path id="Liked-2" data-name="Liked" class="cls-1" d="M46.23,81.11a1.81,1.81,0,0,0,.18.21,1.34,1.34,0,0,0,.11.14,5.4,5.4,0,0,0,.61.56l0,0,.08,0c.16.11.33.22.51.32l.11.06a4.26,4.26,0,0,0,.62.26l.17,0,.48.11.21,0A4.46,4.46,0,0,0,50,83h0a4.46,4.46,0,0,0,.63,0l.21,0,.48-.11.17,0a4.26,4.26,0,0,0,.62-.26.41.41,0,0,0,.11-.07,4.33,4.33,0,0,0,.51-.31l.08,0,0,0a5.4,5.4,0,0,0,.61-.56,1.34,1.34,0,0,0,.11-.14,1.81,1.81,0,0,0,.18-.21L79.23,47.17h0A18.82,18.82,0,0,0,50,23.43,18.82,18.82,0,0,0,20.81,47.17h0"/></g><g id="Rectangle"><rect class="cls-2" width="100" height="100"/></g></svg>